<?xml version="1.0" standalone="no"?>
<!DOCTYPE svg PUBLIC "-//W3C//DTD SVG 20010904//EN"
 "http://www.w3.org/TR/2001/REC-SVG-20010904/DTD/svg10.dtd">
<svg version="1.0" xmlns="http://www.w3.org/2000/svg"
 width="1920.000000pt" height="1080.000000pt" viewBox="0 0 1920.000000 1080.000000"
 preserveAspectRatio="xMidYMid meet">

<g transform="translate(0.000000,1080.000000) scale(0.100000,-0.100000)"
fill="#ffffff" stroke="none">
<path d="M4110 8384 c-709 -46 -1317 -309 -1814 -784 -117 -113 -347 -383
-335 -394 2 -2 114 2 249 10 403 22 639 16 979 -27 417 -52 813 -161 1171
-320 243 -109 440 -224 700 -412 427 -309 1014 -474 1858 -523 73 -4 112 -3
112 4 0 33 -44 255 -70 354 -198 762 -718 1413 -1421 1777 -304 158 -618 255
-951 295 -128 16 -383 26 -478 20z"/>
<path d="M8595 6986 c-269 -42 -473 -182 -534 -368 -63 -191 -22 -398 102
-522 95 -95 226 -146 655 -255 173 -44 262 -113 262 -201 0 -138 -203 -240
-367 -184 -100 34 -164 100 -210 216 l-28 70 -110 -6 c-60 -3 -170 -9 -242
-12 l-133 -7 0 -36 c0 -110 83 -300 169 -389 110 -114 322 -187 571 -199 315
-14 565 56 709 199 109 107 154 231 154 418 0 176 -30 262 -131 369 -96 103
-252 170 -590 255 -123 31 -236 63 -250 70 -75 39 -101 115 -60 175 41 61 79
76 193 76 90 0 105 -3 152 -27 59 -32 99 -77 124 -140 20 -51 -9 -47 302 -34
l209 8 -6 33 c-12 64 -48 160 -82 222 -67 121 -162 192 -314 236 -158 46 -376
59 -545 33z"/>
<path d="M9970 6060 l0 -920 255 0 255 0 0 920 0 920 -255 0 -255 0 0 -920z"/>
<path d="M10937 6973 c-4 -3 -7 -417 -7 -920 l0 -913 775 0 775 0 -2 183 -3
182 -502 3 -503 2 0 200 0 200 435 0 435 0 0 170 0 170 -435 0 -435 0 2 183 3
182 483 3 482 2 -2 178 -3 177 -746 3 c-410 1 -749 -1 -752 -5z"/>
<path d="M16260 6060 l0 -920 760 0 760 0 0 195 0 195 -490 0 -490 0 0 190 0
190 435 0 435 0 0 170 0 170 -435 0 -435 0 0 185 0 185 480 0 480 0 0 180 0
180 -750 0 -750 0 0 -920z"/>
<path d="M12840 6050 l0 -910 680 0 680 0 0 220 0 220 -425 0 -425 0 0 690 0
690 -255 0 -255 0 0 -910z"/>
<path d="M14290 6760 l0 -200 278 -2 277 -3 3 -707 2 -708 260 0 260 0 0 710
0 710 280 0 280 0 0 200 0 200 -820 0 -820 0 0 -200z"/>
<path d="M2030 6779 c-173 -9 -334 -18 -357 -18 -43 -1 -43 -1 -72 -66 -49
-107 -50 -103 11 -109 29 -3 247 -15 483 -26 468 -22 534 -28 762 -65 619
-103 1166 -337 1570 -672 156 -129 215 -172 338 -248 444 -275 1056 -472 1715
-554 172 -21 449 -45 456 -39 14 15 54 357 54 469 l0 46 -132 7 c-731 37
-1304 165 -1765 394 -150 74 -226 121 -388 237 -195 140 -292 198 -490 295
-421 207 -877 322 -1415 360 -194 13 -393 11 -770 -11z"/>
<path d="M1720 5944 c-584 -24 -1015 -45 -1037 -49 -29 -7 -42 -51 -21 -71 10
-10 53 -18 129 -24 181 -15 692 -48 1079 -70 385 -22 470 -30 659 -60 245 -40
473 -99 715 -185 361 -128 649 -289 912 -511 160 -135 262 -209 392 -287 382
-230 831 -391 1397 -501 420 -82 592 -96 1247 -103 727 -8 1402 19 2058 82
456 44 597 59 935 105 1043 140 1730 195 2830 230 1119 34 2589 34 3800 0
l370 -11 17 22 c44 54 9 84 -108 92 -707 52 -2024 116 -2924 141 -1685 48
-2667 25 -3930 -94 -173 -17 -362 -34 -420 -40 -210 -19 -815 -50 -1215 -61
-543 -15 -1214 -3 -1685 31 -74 5 -205 15 -290 20 -171 12 -633 75 -841 115
-360 70 -673 172 -938 305 -159 79 -254 139 -416 258 -374 278 -750 451 -1230
567 -443 107 -769 129 -1485 99z"/>
<path d="M1454 5238 c47 -412 206 -847 441 -1203 464 -704 1196 -1154 2035
-1250 180 -21 557 -16 720 10 543 85 1018 301 1425 649 107 91 278 267 269
275 -5 4 -72 13 -149 20 -613 52 -1282 233 -1775 480 -259 130 -410 228 -628
407 -163 134 -294 222 -457 305 -348 178 -794 301 -1220 339 -135 11 -505 30
-603 30 l-65 0 7 -62z"/>
<path d="M8064 3546 c-39 -33 -39 -89 0 -122 27 -24 30 -24 247 -24 202 0 219
-1 219 -17 0 -10 -13 -164 -30 -341 -30 -335 -29 -361 9 -381 51 -28 131 7
131 58 0 26 48 572 56 634 l6 47 697 0 c765 0 723 3 756 -60 25 -48 19 -95
-16 -135 l-31 -35 -425 0 c-448 0 -470 -2 -487 -47 -6 -15 -35 -343 -36 -401
0 -59 91 -94 141 -53 21 16 24 32 35 172 7 85 13 155 13 157 1 1 170 2 376 2
398 0 421 -2 443 -48 5 -9 5 -66 0 -131 -8 -105 -7 -117 10 -140 20 -28 78
-40 108 -23 9 5 55 60 103 123 l86 114 290 3 291 2 63 -110 c34 -61 73 -117
86 -126 19 -13 101 -14 596 -12 568 3 574 3 615 25 50 27 108 90 130 140 20
49 23 145 5 205 -17 61 -70 122 -135 156 l-51 27 -358 5 -359 5 -29 33 c-32
35 -35 57 -17 97 26 57 -19 55 1068 55 875 0 1005 -2 1030 -15 68 -35 79 -135
20 -187 l-30 -28 -428 0 c-265 0 -441 -4 -464 -11 -25 -6 -43 -19 -52 -37 -20
-41 -42 -407 -26 -437 35 -65 130 -50 149 22 5 21 13 93 17 161 4 76 11 125
18 128 6 2 196 5 423 6 l411 3 -1 -81 c-2 -71 1 -87 28 -140 37 -71 98 -117
180 -134 37 -8 169 -10 402 -8 342 3 349 3 395 27 53 26 103 78 124 128 13 29
74 433 74 484 0 57 -93 90 -137 49 -25 -23 -26 -25 -58 -264 -15 -105 -31
-198 -36 -207 -25 -48 -32 -49 -402 -49 l-349 0 -29 29 c-16 16 -29 40 -29 53
0 13 11 120 25 238 24 214 24 215 55 243 l30 27 971 0 971 0 28 -28 c52 -53
49 -131 -7 -184 l-25 -23 -429 -5 c-420 -5 -429 -5 -450 -26 -24 -24 -34 -93
-45 -305 -7 -121 -6 -127 15 -148 17 -17 32 -21 63 -19 64 5 76 29 88 183 6
72 13 136 15 143 4 10 84 12 394 10 478 -4 436 13 427 -169 -6 -118 -5 -127
14 -152 16 -20 31 -27 55 -27 77 0 90 25 100 187 8 133 0 174 -42 231 l-24 33
23 47 c26 54 37 173 20 222 l-11 30 270 0 c148 0 269 -4 269 -8 0 -4 -11 -140
-25 -302 -31 -364 -31 -394 -5 -420 29 -29 90 -27 118 3 20 21 24 48 47 342
14 176 28 335 31 353 l5 32 354 0 c242 0 362 4 379 11 54 25 58 120 6 146 -20
10 -405 13 -1817 13 -1756 0 -1794 0 -1844 -20 -29 -10 -62 -29 -75 -41 l-23
-21 -33 26 c-77 58 -30 56 -1129 56 -691 0 -1024 -3 -1059 -11 -60 -13 -122
-57 -165 -117 -25 -37 -30 -55 -33 -117 -2 -40 1 -89 7 -108 18 -53 83 -121
143 -148 52 -23 61 -24 406 -29 l354 -5 29 -33 c52 -58 33 -149 -38 -178 -26
-11 -132 -14 -527 -14 l-495 0 -69 118 c-38 64 -131 225 -207 357 -75 132
-146 249 -156 260 -25 26 -90 26 -118 1 -11 -10 -23 -31 -26 -48 -6 -25 9 -58
104 -223 61 -106 111 -196 111 -199 0 -3 -122 -6 -271 -8 l-271 -3 -33 -37
c-34 -40 -45 -46 -45 -25 0 6 -13 29 -29 50 l-29 38 31 59 c26 51 30 71 30
132 0 120 -51 206 -151 255 l-57 28 -1017 3 -1016 2 -28 -24z"/>
<path d="M17473 3200 c-44 -18 -51 -45 -69 -273 -17 -216 -17 -218 3 -245 32
-43 111 -43 134 0 18 33 48 436 36 472 -6 18 -22 33 -43 42 -18 8 -35 14 -36
13 -2 0 -13 -4 -25 -9z"/>
</g>
</svg>
