<?xml version="1.0" standalone="no"?>
<!DOCTYPE svg PUBLIC "-//W3C//DTD SVG 20010904//EN"
 "http://www.w3.org/TR/2001/REC-SVG-20010904/DTD/svg10.dtd">
<svg version="1.0" xmlns="http://www.w3.org/2000/svg"
 width="2560.000000pt" height="1440.000000pt" viewBox="0 0 2560.000000 1440.000000"
 preserveAspectRatio="xMidYMid meet">

<g transform="translate(0.000000,1440.000000) scale(0.100000,-0.100000)"
fill="#000000" stroke="none">
<path d="M0 7200 l0 -7200 12800 0 12800 0 0 7200 0 7200 -12800 0 -12800 0 0
-7200z m5920 3970 c520 -37 991 -169 1446 -405 364 -188 619 -372 903 -649
572 -559 932 -1238 1076 -2029 37 -203 53 -181 -132 -173 -551 24 -1182 129
-1593 266 -373 123 -590 233 -935 472 -324 226 -534 349 -805 474 -648 298
-1366 466 -2159 505 -214 10 -440 6 -958 -18 -104 -4 -143 -3 -143 5 0 45 428
512 610 667 620 525 1316 809 2180 889 83 7 377 5 510 -4z m6105 -1864 c344
-60 526 -194 634 -467 30 -77 61 -184 61 -212 0 -14 -46 -17 -561 -32 -80 -2
-94 6 -129 75 -42 83 -90 134 -162 170 -58 28 -67 30 -182 30 -147 0 -186 -10
-236 -60 -75 -75 -76 -164 -3 -234 39 -39 42 -40 368 -126 502 -133 695 -220
824 -373 72 -84 115 -162 132 -242 20 -90 18 -371 -4 -460 -59 -237 -254 -428
-525 -515 -162 -52 -253 -64 -502 -64 -194 -1 -240 2 -335 22 -271 54 -473
157 -569 290 -90 123 -167 312 -181 444 l-7 66 53 6 c65 7 461 26 542 26 58 0
58 0 73 -37 69 -169 138 -260 235 -308 190 -97 429 -42 530 122 27 43 29 124
6 170 -30 57 -118 119 -232 161 -16 7 -131 39 -255 72 -292 78 -423 122 -540
178 -167 81 -288 227 -331 402 -18 71 -18 278 0 350 54 219 237 401 500 494
76 27 216 61 286 69 76 9 430 -3 510 -17z m1945 -1226 l0 -1230 -340 0 -340 0
0 1230 0 1230 340 0 340 0 0 -1230z m9710 990 l0 -240 -640 0 -640 0 0 -250 0
-250 580 0 580 0 0 -225 0 -225 -580 0 -580 0 0 -255 0 -255 655 0 655 0 0
-260 0 -260 -1015 0 -1015 0 0 1230 0 1230 1000 0 1000 0 0 -240z m-7100 168
c0 -35 3 -140 7 -234 l6 -171 -645 -8 -645 -7 -6 -181 c-4 -99 -7 -209 -7
-244 l0 -63 580 0 580 0 0 -225 0 -225 -580 0 -580 0 0 -264 0 -264 669 -7
668 -7 7 -91 c3 -49 6 -159 6 -244 l0 -153 -1035 0 -1035 0 0 938 c0 516 3
1068 7 1225 l6 287 999 0 998 0 0 -62z m1220 -878 l0 -920 565 0 565 0 0 -295
0 -295 -905 0 -905 0 0 1215 0 1215 340 0 340 0 0 -920z m3440 655 l0 -265
-375 0 -375 0 0 -950 0 -950 -345 0 -345 0 0 568 c0 313 -3 738 -7 944 l-6
376 -369 7 -368 7 0 264 0 264 1095 0 1095 0 0 -265z m-17423 30 c534 -43
1040 -155 1473 -327 165 -65 502 -230 648 -317 64 -38 180 -113 257 -167 302
-211 394 -267 600 -369 606 -299 1279 -455 2243 -520 122 -8 237 -15 254 -15
l31 0 -6 -128 c-7 -130 -51 -516 -63 -547 -8 -20 -45 -19 -420 20 -834 87
-1556 281 -2161 583 -292 145 -442 243 -760 497 -252 201 -452 331 -713 461
-462 230 -986 390 -1525 463 -223 31 -308 37 -930 71 -662 35 -655 34 -655 60
0 26 74 185 90 195 7 4 142 14 299 22 157 7 349 17 426 22 243 14 708 12 912
-4z m-252 -1130 c289 -31 473 -64 780 -141 309 -78 586 -176 844 -300 260
-125 405 -212 706 -424 232 -164 325 -224 460 -297 404 -219 896 -383 1435
-478 542 -95 954 -140 1700 -185 496 -29 1601 -40 2146 -20 720 26 1190 54
1694 100 1598 147 2350 184 3755 183 1478 -1 3666 -80 5358 -193 360 -24 445
-32 475 -47 44 -22 50 -46 21 -92 l-20 -34 -297 7 c-163 4 -434 12 -602 17
-168 5 -935 12 -1705 15 -1682 8 -2505 -4 -3590 -51 -1169 -51 -1730 -101
-3170 -285 -1551 -198 -2825 -271 -4205 -241 -755 16 -920 33 -1479 146 -808
163 -1434 403 -1951 748 -123 82 -206 146 -389 296 -384 316 -750 517 -1269
695 -376 129 -758 216 -1142 260 -74 9 -396 32 -715 51 -825 50 -1318 83
-1409 95 -44 5 -83 10 -87 10 -16 0 -39 32 -39 54 0 51 16 54 315 70 154 9
496 25 760 36 264 11 512 22 550 24 192 10 927 -3 1070 -19z m-1340 -855 c552
-24 787 -47 1111 -111 462 -90 954 -272 1300 -481 143 -85 206 -131 449 -323
176 -139 398 -296 505 -357 405 -231 761 -381 1235 -523 462 -138 890 -223
1389 -276 105 -11 205 -23 221 -28 l30 -8 -150 -152 c-540 -551 -1219 -908
-1996 -1051 -246 -45 -368 -53 -741 -47 -339 5 -386 9 -637 58 -1032 197
-1931 826 -2484 1734 -276 455 -457 981 -522 1518 l-7 57 28 0 c16 0 137 -5
269 -10z m11344 -2342 c120 -65 181 -150 202 -280 15 -89 5 -156 -37 -241
l-37 -74 37 -52 c20 -29 36 -59 36 -67 0 -23 12 -16 65 36 l50 49 265 3 c146
1 307 4 358 6 l93 3 -37 67 c-20 37 -74 133 -120 213 -112 196 -137 252 -129
289 14 64 101 100 168 69 22 -10 82 -100 170 -254 97 -171 279 -486 349 -603
l80 -133 672 3 c624 3 673 4 704 21 79 43 95 141 39 223 l-34 49 -384 7 c-506
8 -570 12 -633 42 -66 30 -139 96 -174 154 -25 44 -27 55 -27 157 0 86 4 118
18 147 27 53 104 129 167 163 51 27 66 30 195 36 204 10 2450 8 2582 -2 122
-9 164 -22 222 -68 l37 -29 24 19 c69 55 121 72 245 80 145 10 4233 12 4529 2
197 -6 210 -7 235 -29 22 -19 26 -31 26 -74 0 -45 -4 -55 -31 -79 -29 -26 -38
-28 -155 -34 -68 -3 -286 -6 -484 -7 -197 0 -360 -2 -361 -3 -3 -3 -38 -384
-59 -642 -25 -304 -31 -324 -105 -346 -48 -15 -105 8 -121 48 -14 35 -7 165
30 603 15 179 26 328 24 332 -2 5 -164 8 -360 8 -335 0 -355 -1 -347 -17 13
-31 17 -182 5 -231 -7 -26 -21 -70 -32 -99 l-21 -52 30 -43 c48 -71 56 -109
54 -254 -3 -217 -24 -280 -96 -297 -45 -11 -91 5 -114 42 -14 21 -17 53 -17
194 l0 170 -25 19 c-17 12 -56 22 -119 29 -120 13 -926 8 -940 -6 -6 -6 -17
-82 -26 -170 -17 -176 -27 -216 -58 -245 -30 -28 -105 -27 -142 2 l-28 22 6
175 c10 284 30 396 75 420 27 14 167 19 702 26 l455 6 28 27 c48 45 63 87 59
163 -1 14 -18 47 -37 73 l-36 46 -1303 0 -1304 0 -34 -38 c-42 -46 -41 -40
-78 -371 -19 -168 -26 -269 -21 -284 5 -13 21 -37 36 -55 l27 -32 451 0 c279
0 466 4 489 10 72 20 77 37 139 479 20 148 35 193 68 211 54 28 154 -5 167
-55 12 -49 -75 -612 -106 -681 -25 -57 -97 -126 -168 -161 l-57 -28 -495 0
c-494 0 -495 0 -552 23 -75 30 -147 96 -186 170 -31 57 -32 65 -32 175 l0 115
-537 -4 c-296 -3 -548 -7 -559 -10 -12 -2 -24 -10 -27 -19 -4 -8 -11 -81 -17
-162 -14 -184 -21 -218 -56 -254 -37 -39 -99 -41 -141 -5 l-28 24 1 149 c1
176 20 385 39 429 14 35 35 49 81 59 16 3 288 9 604 12 l575 5 28 27 c40 37
57 73 57 123 0 50 -26 98 -67 125 -26 17 -92 18 -1318 20 -792 1 -1319 -2
-1365 -8 -91 -12 -114 -26 -127 -77 -11 -44 -1 -77 40 -125 l24 -28 480 -9
481 -8 52 -27 c73 -37 145 -107 177 -174 25 -51 28 -66 28 -166 0 -129 -14
-170 -88 -250 -70 -78 -123 -102 -237 -109 -175 -10 -1173 -16 -1324 -8 l-150
9 -31 36 c-17 19 -59 85 -94 145 -34 61 -68 118 -75 127 -11 16 -41 17 -397
10 l-384 -8 -49 -66 c-123 -164 -189 -240 -218 -250 -42 -15 -101 2 -128 36
-20 25 -20 34 -14 188 5 113 3 167 -5 182 -24 46 -54 48 -586 48 l-500 0 -7
-85 c-19 -232 -30 -317 -43 -337 -31 -47 -126 -46 -174 2 -24 24 -26 32 -24
103 2 77 28 380 39 460 5 30 14 48 30 58 39 26 194 33 705 34 l487 0 35 39
c42 47 54 97 38 152 -20 66 -47 89 -121 99 -36 5 -455 10 -946 10 l-881 0 -6
-34 c-3 -18 -22 -224 -42 -457 -20 -233 -41 -434 -46 -447 -14 -35 -85 -63
-133 -52 -86 19 -86 23 -30 657 15 166 24 308 21 316 -5 12 -53 15 -290 19
-317 4 -325 6 -353 75 -18 43 -8 82 34 126 l27 30 1361 -6 1360 -5 63 -34z
m9824 -465 c43 -22 50 -52 43 -208 -8 -165 -34 -430 -47 -462 -22 -58 -118
-66 -171 -13 -25 25 -28 35 -28 92 0 76 27 388 41 475 13 84 27 113 64 129 31
14 51 11 98 -13z"/>
</g>
</svg>
